<svg xmlns="http://www.w3.org/2000/svg" xmlns:xlink="http://www.w3.org/1999/xlink" width="749" height="120" viewBox="0 0 749 120">
  <defs>
    <linearGradient id="linear-gradient" x2="1" y2="1" gradientUnits="objectBoundingBox">
      <stop offset="0" stop-color="#009cd6"/>
      <stop offset="1" stop-color="#7900b4"/>
    </linearGradient>
  </defs>
  <g id="Grupo_1936" data-name="Grupo 1936" transform="translate(-237 -507)">
    <rect id="Retângulo_493" data-name="Retângulo 493" width="749" height="120" rx="23" transform="translate(237 507)" fill="url(#linear-gradient)"/>
    <g id="Camada_x0020_1" transform="translate(267 516.507)">
      <circle id="Elipse_17" data-name="Elipse 17" cx="50" cy="50" r="50" transform="translate(0 0.493)" fill="rgba(255,255,255,0.2)"/>
      <g id="Grupo_1935" data-name="Grupo 1935" transform="translate(16.731 16.838)">
        <path id="Caminho_648" data-name="Caminho 648" d="M220.645,216.369a6.917,6.917,0,0,1,11.172,8.158,33.425,33.425,0,1,1-1.2-41.023,6.917,6.917,0,0,1-10.674,8.8h0l-.043-.052-.078-.094-.079-.093-.08-.092-.078-.091-.08-.091-.08-.089-.083-.092-.084-.092-.08-.088-.082-.087-.088-.092-.085-.089-.083-.084-.087-.089-.087-.087-.089-.088-.09-.087-.088-.085-.087-.083-.09-.085-.093-.086-.094-.085-.093-.084-.092-.082-.094-.083-.095-.082-.093-.079-.1-.082-.1-.082-.1-.08-.1-.081-.1-.079-.1-.079-.1-.079-.1-.078-.1-.077-.1-.078-.1-.075-.1-.077h0l-.1-.075-.1-.075-.1-.073-.106-.074-.1-.071-.106-.072-.105-.071-.1-.068-.106-.069-.105-.067-.107-.068-.106-.066-.108-.066-.106-.065-.105-.062-.107-.063-.106-.062-.111-.063-.108-.062-.107-.06-.107-.059-.106-.058-.114-.061-.108-.058-.106-.055-.11-.056-.109-.055-.111-.055-.108-.053-.111-.053-.111-.053-.109-.05-.11-.05-.111-.05-.112-.05-.111-.048-.112-.048-.111-.046-.109-.045-.112-.045-.115-.045-.11-.044-.113-.042-.115-.044-.109-.039-.112-.041-.115-.041-.116-.039-.112-.038-.11-.037-.117-.038-.115-.036-.112-.035-.113-.034-.113-.034-.117-.034-.114-.032-.112-.031-.117-.031-.119-.031-.113-.029-.113-.028-.117-.029-.117-.027-.114-.026-.115-.026-.117-.025-.118-.025-.113-.023-.114-.022-.122-.023-.114-.021-.114-.021-.122-.021-.114-.02-.115-.019-.121-.019-.115-.018-.118-.017-.118-.017-.114-.015-.118-.015-.119-.014-.118-.014-.114-.012-.119-.013-.122-.011-.114-.011-.118-.01-.119-.009-.114-.008-.122-.008-.118-.007-.118-.006-.118-.006-.114,0-.123,0-.118,0-.113,0-.122,0-.118,0H204.6l-.122,0-.117,0-.113,0-.122,0-.117,0-.117.006-.121.006-.117.007-.117.007-.116.008-.121.009-.116.01-.116.01-.117.011-.12.013-.12.012-.115.013-.116.014-.116.015-.119.015-.116.016-.119.018-.118.017-.115.018-.114.019-.115.019-.122.021-.114.021-.114.021-.122.023-.113.022-.113.022-.117.024-.116.025-.113.024-.114.026-.119.027-.116.028-.111.027-.115.029-.116.029-.111.029-.115.031-.114.032-.115.033-.113.032-.109.033-.115.035-.113.034-.111.036-.114.036-.112.037-.112.038-.112.039-.112.039-.111.04-.11.04-.11.041-.11.041-.111.043-.11.043-.11.044-.107.044-.113.047-.108.045-.1.045-.111.049-.109.048-.106.048-.11.05-.1.048-.106.051-.107.052-.109.053-.105.052-.105.053-.105.054-.1.054-.107.056-.107.057-.1.056-.1.057-.105.059-.1.057-.1.058-.106.063-.1.059-.1.06-.107.064-.1.062-.1.062-.1.063-.1.063-.1.065-.1.066-.1.065-.1.066-.1.068-.1.066-.1.069-.1.07-.095.068-.1.071-.1.07-.095.071-.1.073-.1.074-.095.073-.095.074-.094.074-.094.076-.094.076-.093.077-.094.078-.093.079-.092.08-.091.078-.091.08-.089.08-.092.083-.092.084-.088.08-.087.082-.092.088-.089.085-.084.083-.089.087-.087.087-.088.089-.087.09-.085.088-.083.087-.085.09-.086.093-.085.094-.084.093-.082.092-.083.094-.082.095-.079.093-.082.1-.082.1-.08.1-.081.1-.079.1-.079.1-.079.1-.078.1-.077.1-.078.1-.075.1-.077.1h0l-.075.1-.075.1-.073.1-.074.106-.071.1-.072.106-.071.105-.068.1-.069.106-.067.105-.068.107-.066.106-.066.108-.065.106-.062.105-.063.107-.062.106-.063.111-.062.108-.06.107-.059.107-.058.106-.061.114-.058.108-.055.106-.056.11-.055.109-.055.111-.053.108-.053.111-.053.111-.05.109-.05.11-.05.111-.05.112-.048.111-.048.112-.046.111-.045.109-.045.112-.045.115-.044.11-.042.113-.044.115-.039.109-.041.112-.041.115-.039.116-.038.112-.037.11-.038.117-.036.115-.035.112-.034.113-.034.113-.034.117-.032.114-.031.112-.031.117-.031.119-.029.113-.028.113-.029.117-.027.117-.026.114-.026.115-.025.117-.025.118-.023.113-.022.114-.023.122-.021.114-.021.114-.021.122-.02.114-.019.115-.019.121-.018.115-.017.118-.017.118-.015.114-.015.118-.014.119-.014.118-.012.114-.013.119-.011.122-.011.114-.01.118-.009.119-.008.114-.008.122-.007.118-.006.118-.006.118,0,.114,0,.123,0,.118,0,.113,0,.122,0,.118v.354l0,.122,0,.117,0,.113,0,.122,0,.117.006.117.006.121.007.117.007.117.008.116.009.121.01.116.01.116.011.117.013.12.012.12.013.115.014.116.015.116.015.119.016.116.018.119.017.118.018.115.019.114.019.115.021.122.021.114.021.114.023.122.022.113.022.113.024.117.025.116.024.113.026.114.027.119.028.116.027.111.029.115.029.116.029.111.031.115.032.114.033.115.032.113.033.109.035.115.034.113.036.111.036.114.037.112.038.112.039.112.039.112.04.111.04.11.041.11.041.11.043.111.043.11.044.11.044.107.047.113.045.108.045.1.049.111.048.109.048.106.05.11.048.1.051.106.052.107.053.109.052.105.053.105.054.105.054.1.056.107.057.107.056.1.057.1.059.105.057.1.058.1.063.106.059.1.06.1.064.107.062.1.062.1.063.1.063.1.065.1.066.1.065.1.066.1.068.1.066.1.069.1.07.1.068.095.071.1.07.1.071.095.073.1.074.1.073.095.074.095.074.094.076.094.076.094.077.093.078.094.079.093.08.092.078.091.08.091.08.089.083.092.084.092.08.088.082.087.088.092.085.089.083.084.087.089.087.087.089.088.09.087.088.085.087.083.09.085.093.086.094.085.093.084.092.082.094.083.095.082.093.079.1.082.1.082.1.08.1.081.1.079.1.079.1.079.1.078.1.077.1.078.1.075.1.077h0l.1.075.1.075.1.073.106.074.1.071.106.072.105.071.1.068.106.069.105.067.107.068.106.066.108.066.106.065.105.063.107.063.106.062.111.063.108.062.107.06.107.059.106.058.114.061.108.058.106.055.11.056.109.055.111.055.108.053.111.053.111.053.109.05.11.05.111.05.112.05.111.048.112.048.111.046.109.045.112.045.115.045.11.044.113.042.115.044.109.039.112.041.115.041.116.039.112.038.11.037.117.038.115.036.112.035.113.034.113.034.117.034.114.032.112.031.117.031.119.031.113.029.113.028.117.029.117.027.114.026.115.026.117.025.118.025.113.023.114.022.122.023.114.021.114.021.122.021.114.02.115.019.121.019.115.018.118.017.118.017.114.015.118.015.119.014.118.014.114.012.119.013.122.011.114.011.118.01.119.009.114.008.122.008.118.007.118.006.118.006.114,0,.123,0,.118,0,.113,0,.122,0,.118,0h.354l.122,0,.117,0,.113,0,.122,0,.117,0,.117-.006.121-.006.117-.007.117-.007.116-.008.121-.009.116-.01.116-.01.117-.011.12-.013.12-.012L207,224.3l.116-.014.116-.015.119-.015.116-.016.119-.018.118-.017.115-.018.114-.019.115-.019.122-.021.114-.021.114-.02.122-.023.113-.022.113-.022.117-.024.116-.025.113-.024.114-.026.119-.027.116-.028.111-.027.115-.029.116-.029.111-.029.115-.031.114-.032.115-.033.113-.032.109-.033.115-.035.113-.034.111-.036.114-.036.112-.037.112-.038.112-.039.112-.039.111-.04.11-.04.11-.041.11-.041.111-.043.11-.043.11-.044.107-.044.113-.047.108-.045.1-.045.111-.049.109-.048.106-.048.11-.05.1-.048.106-.051.107-.052.109-.053.105-.052.105-.053.105-.054.1-.054.107-.056.107-.057.1-.056.1-.057.105-.059.1-.057.1-.058.106-.063.1-.059.1-.06.107-.064.1-.062.1-.062.1-.063.1-.063.1-.065.1-.066.1-.065.1-.066.1-.068.1-.066.1-.069.1-.07.095-.068.1-.071.1-.07.095-.071.1-.073.1-.074.095-.073.095-.074.094-.074.094-.076.094-.076.093-.077.094-.078.093-.079.092-.08.091-.078.091-.08.089-.08.092-.083.092-.084.088-.08.087-.082.092-.088.089-.085.084-.083.089-.087.087-.087.088-.089.087-.09.085-.088.083-.087.085-.09.086-.093.085-.094.084-.093.082-.092.083-.094.082-.095.079-.093.082-.1.082-.1.08-.1.081-.1.079-.1.079-.1.079-.1.078-.1.077-.1.078-.1.075-.1.077-.1Z" transform="translate(-171.333 -171.334)" fill="#fff" fill-rule="evenodd"/>
      </g>
    </g>
    <text id="Criptomemória" transform="translate(397 590)" fill="#fff" font-size="65" font-family="Roboto-Medium, Roboto" font-weight="500" letter-spacing="0.03em"><tspan x="0" y="0">CRIPTOMEMÓRIA</tspan></text>
  </g>
</svg>
